<?xml version="1.0" standalone="no"?>
<!DOCTYPE svg PUBLIC "-//W3C//DTD SVG 20010904//EN"
 "http://www.w3.org/TR/2001/REC-SVG-20010904/DTD/svg10.dtd">
<svg version="1.0" xmlns="http://www.w3.org/2000/svg"
 width="500.000000pt" height="500.000000pt" viewBox="0 0 500.000000 500.000000"
 preserveAspectRatio="xMidYMid meet">
<metadata>
Created by potrace 1.11, written by Peter Selinger 2001-2013
</metadata>
<g transform="translate(0.000000,500.000000) scale(0.100000,-0.100000)"
fill="#000000" stroke="none">
<path d="M893 3345 l-853 -853 851 -851 c468 -468 854 -851 858 -851 8 0 1701
1693 1701 1701 0 6 -1639 1649 -1686 1691 -18 15 -58 -23 -871 -837z"/>
<path d="M3077 4013 c-103 -102 -187 -189 -187 -192 0 -3 298 -304 662 -668
l663 -663 -657 -657 c-362 -362 -661 -662 -665 -666 -7 -8 355 -377 369 -377
5 0 391 383 859 851 l851 851 -854 854 -854 853 -187 -186z"/>
</g>
</svg>
